<svg width="240" height="240" viewBox="0 0 240 240" fill="none" xmlns="http://www.w3.org/2000/svg">
<path fill-rule="evenodd" clip-rule="evenodd" d="M120 25C97.91 25 80 42.91 80 65V114.5C80 136.59 97.91 154.5 120 154.5C142.09 154.5 160 136.59 160 114.5V65C160 42.91 142.09 25 120 25Z" stroke="black" stroke-width="20"/>
<path fill-rule="evenodd" clip-rule="evenodd" d="M62.4598 151.17C65.8398 148.2 70.9798 148.52 73.9598 151.9C79.6998 158.43 86.7798 163.66 94.7098 167.24C102.64 170.82 111.23 172.66 119.92 172.66H119.96H119.99C128.68 172.66 137.28 170.82 145.2 167.24C153.13 163.66 160.21 158.43 165.96 151.9C168.93 148.52 174.07 148.2 177.45 151.17C180.83 154.14 181.15 159.28 178.18 162.66C170.9 170.93 161.95 177.55 151.9 182.09C144.35 185.5 136.31 187.66 128.1 188.52V198.71H137.33C141.83 198.71 145.47 202.36 145.47 206.86C145.47 211.35 141.83 215 137.33 215H119.96H102.59C98.0898 215 94.4398 211.35 94.4398 206.86C94.4398 202.36 98.0898 198.71 102.59 198.71H111.81V188.52C103.6 187.66 95.5698 185.5 88.0098 182.09C77.9698 177.55 69.0098 170.93 61.7298 162.66C58.7598 159.28 59.0898 154.14 62.4598 151.17Z" fill="black"/>
</svg>
