<svg width="240" height="240" viewBox="0 0 240 240" fill="none" xmlns="http://www.w3.org/2000/svg">
<g clip-path="url(#clip0_2583_2)">
<path d="M107.339 106.685L147.494 232.17C148.503 235.326 146.764 238.703 143.608 239.713C143.017 239.902 142.4 239.998 141.779 239.998H101.999C95.3717 239.998 89.9995 234.626 89.9995 227.998V161.999C89.9995 155.372 84.6267 149.999 77.9995 149.999H5.99995C2.68627 149.999 0 147.313 0 144V102C0 95.3723 5.37253 89.9995 11.9999 89.9995H84.4805C94.9173 89.9995 104.157 96.7446 107.339 106.685Z" fill="black"/>
<path d="M149.995 11.9999V77.9995C149.995 84.6267 155.367 89.9995 161.995 89.9995H233.994C237.308 89.9995 239.994 92.6853 239.994 95.9989V137.999C239.994 144.626 234.622 149.999 227.994 149.999H155.514C145.077 149.999 135.837 143.254 132.656 133.314L92.5008 7.82859C91.4907 4.67256 93.2304 1.29538 96.3867 0.285453C96.9776 0.0962965 97.5947 0 98.2149 0H137.995C144.622 0 149.995 5.37253 149.995 11.9999Z" fill="black"/>
</g>
<defs>
<clipPath id="clip0_2583_2">
<rect width="240" height="240" fill="white"/>
</clipPath>
</defs>
</svg>
