<svg width="240" height="240" viewBox="0 0 240 240" fill="none" xmlns="http://www.w3.org/2000/svg">
<path d="M220 2.5H20C10.335 2.5 2.5 10.335 2.5 20V220C2.5 229.665 10.335 237.5 20 237.5H220C229.665 237.5 237.5 229.665 237.5 220V20C237.5 10.335 229.665 2.5 220 2.5Z" fill="white"/>
<mask id="mask0_2587_6" style="mask-type:luminance" maskUnits="userSpaceOnUse" x="30" y="30" width="180" height="180">
<path d="M210 30H30V210H210V30Z" fill="white"/>
</mask>
<g mask="url(#mask0_2587_6)">
<path fill-rule="evenodd" clip-rule="evenodd" d="M124.359 118.75C124.359 116.334 126.318 114.375 128.734 114.375H205.376C207.792 114.375 209.751 116.334 209.751 118.75C209.751 121.166 207.792 123.125 205.376 123.125H128.734C126.318 123.125 124.359 121.166 124.359 118.75ZM33.501 153.75C33.501 151.334 35.4597 149.375 37.876 149.375H205.376C207.792 149.375 209.751 151.334 209.751 153.75C209.751 156.166 207.792 158.125 205.376 158.125H37.876C35.4597 158.125 33.501 156.166 33.501 153.75ZM33.501 188.75C33.501 186.334 35.4597 184.375 37.876 184.375H205.376C207.792 184.375 209.751 186.334 209.751 188.75C209.751 191.166 207.792 193.125 205.376 193.125H37.876C35.4597 193.125 33.501 191.166 33.501 188.75Z" fill="#BEBBBB"/>
<path d="M103.949 72.552L100.576 65.274L93.2975 61.901L100.576 58.528L103.949 51.25L107.322 58.528L114.6 61.901L107.322 65.274L103.949 72.552ZM58.4675 72.552L55.0945 65.274L47.8164 61.901L55.0945 58.528L58.4675 51.25L61.84 58.528L69.1185 61.901L61.84 65.274L58.4675 72.552ZM103.949 118.034L100.576 110.755L93.2975 107.382L100.576 104.01L103.949 96.731L107.322 104.01L114.6 107.382L107.322 110.755L103.949 118.034ZM44.7998 130.192L35.657 121.05C34.9521 120.336 34.5996 119.473 34.5996 118.462C34.5996 117.45 34.9521 116.592 35.657 115.887L78.6345 72.9875C79.3485 72.283 80.211 71.9305 81.2225 71.9305C82.234 71.9305 83.092 72.283 83.797 72.9875L92.9395 82.1305C93.6445 82.8445 93.997 83.707 93.997 84.7185C93.997 85.7295 93.6445 86.588 92.9395 87.293L49.962 130.192C49.2481 130.897 48.3855 131.25 47.3741 131.25C46.3627 131.25 45.5046 130.897 44.7998 130.192ZM47.443 124.191L76.4265 95.083L70.7665 89.423L41.6587 118.406L47.443 124.191Z" fill="#9747FF"/>
</g>
<path d="M220 2.5H20C10.335 2.5 2.5 10.335 2.5 20V220C2.5 229.665 10.335 237.5 20 237.5H220C229.665 237.5 237.5 229.665 237.5 220V20C237.5 10.335 229.665 2.5 220 2.5Z" stroke="#D7D5D5" stroke-width="5"/>
</svg>
