<svg width="160" height="160" viewBox="0 0 160 160" fill="none" xmlns="http://www.w3.org/2000/svg">
<path d="M128.425 49.1942L122.863 37.1922L110.861 31.6304L122.863 26.0684L128.425 14.0664L133.987 26.0684L145.989 31.6304L133.987 37.1922L128.425 49.1942ZM53.425 49.1942L47.8632 37.1922L35.8613 31.6304L47.8632 26.0684L53.425 14.0664L58.987 26.0684L70.989 31.6304L58.987 37.1922L53.425 49.1942ZM128.425 124.194L122.863 112.192L110.861 106.63L122.863 101.069L128.425 89.0664L133.987 101.069L145.989 106.63L133.987 112.192L128.425 124.194ZM30.8867 144.246L15.8101 129.169C14.6476 127.991 14.0664 126.569 14.0664 124.902C14.0664 123.234 14.6476 121.818 15.8101 120.656L86.6816 49.9126C87.8584 48.7502 89.2816 48.169 90.9488 48.169C92.6168 48.169 94.032 48.7502 95.1944 49.9126L110.271 64.9893C111.434 66.1666 112.014 67.5891 112.014 69.2569C112.014 70.9246 111.434 72.3396 110.271 73.5021L39.3994 144.246C38.2222 145.408 36.7997 145.989 35.1319 145.989C33.4642 145.989 32.049 145.408 30.8867 144.246ZM35.2456 134.348L83.0408 86.348L73.707 77.0149L25.707 124.81L35.2456 134.348Z" fill="black"/>
</svg>
