<svg width="160" height="160" viewBox="0 0 160 160" fill="none" xmlns="http://www.w3.org/2000/svg">
<path d="M30 90C27.2222 90 24.8622 89.0267 22.92 87.08C20.9733 85.1378 20 82.7778 20 80C20 77.2222 20.9733 74.8622 22.92 72.92C24.8622 70.9733 27.2222 70 30 70C32.7778 70 35.1378 70.9733 37.08 72.92C39.0267 74.8622 40 77.2222 40 80C40 82.7778 39.0267 85.1378 37.08 87.08C35.1378 89.0267 32.7778 90 30 90ZM30 50C27.2222 50 24.8622 49.0267 22.92 47.08C20.9733 45.1378 20 42.7778 20 40C20 37.2222 20.9733 34.8622 22.92 32.92C24.8622 30.9733 27.2222 30 30 30C32.7778 30 35.1378 30.9733 37.08 32.92C39.0267 34.8622 40 37.2222 40 40C40 42.7778 39.0267 45.1378 37.08 47.08C35.1378 49.0267 32.7778 50 30 50ZM30 130C27.2222 130 24.8622 129.027 22.92 127.08C20.9733 125.138 20 122.778 20 120C20 117.222 20.9733 114.862 22.92 112.92C24.8622 110.973 27.2222 110 30 110C32.7778 110 35.1378 110.973 37.08 112.92C39.0267 114.862 40 117.222 40 120C40 122.778 39.0267 125.138 37.08 127.08C35.1378 129.027 32.7778 130 30 130ZM60 126.667C58.1111 126.667 56.5289 126.027 55.2533 124.747C53.9733 123.471 53.3333 121.889 53.3333 120C53.3333 118.111 53.9733 116.529 55.2533 115.253C56.5289 113.973 58.1111 113.333 60 113.333H133.333C135.222 113.333 136.804 113.973 138.08 115.253C139.36 116.529 140 118.111 140 120C140 121.889 139.36 123.471 138.08 124.747C136.804 126.027 135.222 126.667 133.333 126.667H60ZM60 86.6667C58.1111 86.6667 56.5289 86.0267 55.2533 84.7467C53.9733 83.4711 53.3333 81.8889 53.3333 80C53.3333 78.1111 53.9733 76.5267 55.2533 75.2467C56.5289 73.9711 58.1111 73.3333 60 73.3333H133.333C135.222 73.3333 136.804 73.9711 138.08 75.2467C139.36 76.5267 140 78.1111 140 80C140 81.8889 139.36 83.4711 138.08 84.7467C136.804 86.0267 135.222 86.6667 133.333 86.6667H60ZM60 46.6667C58.1111 46.6667 56.5289 46.0289 55.2533 44.7533C53.9733 43.4733 53.3333 41.8889 53.3333 40C53.3333 38.1111 53.9733 36.5267 55.2533 35.2467C56.5289 33.9711 58.1111 33.3333 60 33.3333H133.333C135.222 33.3333 136.804 33.9711 138.08 35.2467C139.36 36.5267 140 38.1111 140 40C140 41.8889 139.36 43.4733 138.08 44.7533C136.804 46.0289 135.222 46.6667 133.333 46.6667H60Z" fill="black"/>
</svg>
