<svg viewBox="0 0 240 240" fill="none" xmlns="http://www.w3.org/2000/svg">
<path fill-rule="evenodd" clip-rule="evenodd" d="M120 25C97.9086 25 80 42.9086 80 65V114.5C80 136.591 97.9086 154.5 120 154.5C142.091 154.5 160 136.591 160 114.5V65C160 42.9086 142.091 25 120 25Z" stroke="black" stroke-width="20"/>
<path fill-rule="evenodd" clip-rule="evenodd" d="M62.4631 151.166C65.8391 148.195 70.9844 148.524 73.9555 151.9C79.7041 158.432 86.7802 163.662 94.7113 167.242C102.635 170.818 111.231 172.664 119.924 172.657H119.957H119.99C128.683 172.664 137.279 170.818 145.203 167.242C153.134 163.662 160.21 158.432 165.958 151.9C168.93 148.524 174.075 148.195 177.451 151.166C180.827 154.137 181.155 159.283 178.184 162.659C170.905 170.93 161.945 177.553 151.902 182.086C144.347 185.496 136.309 187.663 128.1 188.522V198.714H137.329C141.826 198.714 145.471 202.36 145.471 206.857C145.471 211.354 141.826 215 137.329 215H119.957H102.586C98.0885 215 94.4428 211.354 94.4428 206.857C94.4428 202.36 98.0885 198.714 102.586 198.714H111.814V188.522C103.604 187.663 95.5671 185.496 88.0117 182.086C77.9691 177.553 69.009 170.93 61.7299 162.659C58.7588 159.283 59.0871 154.137 62.4631 151.166Z" fill="black"/>
</svg>
