<svg width="160" height="160" viewBox="0 0 160 160" fill="none" xmlns="http://www.w3.org/2000/svg">
<path d="M126.67 60.0033L118.337 41.6699L100.003 33.3366L118.337 25.0033L126.67 6.66992L135.003 25.0033L153.337 33.3366L135.003 41.6699L126.67 60.0033ZM126.67 153.337L118.337 135.003L100.003 126.67L118.337 118.337L126.67 100.003L135.003 118.337L153.337 126.67L135.003 135.003L126.67 153.337ZM60.0033 133.337L43.3366 96.6699L6.66992 80.0033L43.3366 63.3366L60.0033 26.6699L76.6699 63.3366L113.337 80.0033L76.6699 96.6699L60.0033 133.337ZM60.0033 101.003L66.6699 86.6699L81.0032 80.0033L66.6699 73.3366L60.0033 59.0033L53.3366 73.3366L39.0033 80.0033L53.3366 86.6699L60.0033 101.003Z" fill="black"/>
</svg>
